<svg width="20" height="20" viewBox="0 0 20 20" fill="none" xmlns="http://www.w3.org/2000/svg">
<path d="M19.0619 12.5H17.4994V10.625C17.4997 9.89535 17.3493 9.1735 17.0577 8.50469C16.766 7.83588 16.3394 7.23451 15.8045 6.73827C16.2263 5.60936 17.3766 4.62382 17.3888 4.61327C17.4375 4.57189 17.4724 4.51655 17.4887 4.45471C17.5051 4.39287 17.502 4.32751 17.48 4.26746C17.458 4.20741 17.4181 4.15556 17.3657 4.11891C17.3133 4.08225 17.2509 4.06256 17.1869 4.06249C16.2834 4.06249 15.4979 4.23987 14.8393 4.59077C14.9636 4.38222 15.1014 4.18204 15.2518 3.99151C15.5187 3.65215 15.8155 3.3374 16.1386 3.05104C16.1874 3.0097 16.2224 2.95435 16.2388 2.89249C16.2552 2.83062 16.2522 2.76521 16.2302 2.7051C16.2082 2.645 16.1683 2.5931 16.1158 2.55641C16.0634 2.51973 16.0009 2.50003 15.9369 2.49999C15.0922 2.49999 14.3471 2.65729 13.7126 2.96714C13.625 2.31374 13.3287 1.15897 12.3267 0.657997C12.2833 0.636297 12.2354 0.625 12.1869 0.625C12.1384 0.625 12.0906 0.636297 12.0472 0.657997C11.0463 1.15843 10.7494 2.3112 10.6615 2.96503C10.0291 2.65597 9.28521 2.49999 8.43692 2.49999C8.37296 2.50003 8.31054 2.5197 8.25811 2.55634C8.20567 2.59298 8.16575 2.64483 8.14372 2.70489C8.1217 2.76495 8.11863 2.83032 8.13495 2.89217C8.15126 2.95403 8.18616 3.00938 8.23493 3.05077C8.55811 3.33715 8.85496 3.65194 9.12189 3.99136C9.27199 4.1814 9.40954 4.38105 9.53364 4.58901C8.87626 4.23932 8.09149 4.06249 7.18692 4.06249C7.12296 4.06253 7.06054 4.0822 7.00811 4.11884C6.95567 4.15548 6.91575 4.20733 6.89372 4.26739C6.8717 4.32745 6.86863 4.39282 6.88495 4.45467C6.90126 4.51652 6.93616 4.57188 6.98493 4.61327C6.99724 4.6237 8.14743 5.60936 8.56939 6.73827C8.03448 7.23451 7.60783 7.83588 7.31617 8.50469C7.02451 9.1735 6.87412 9.89535 6.87442 10.625V10.6608C6.52962 10.7264 6.07333 10.8757 5.82966 11.0586C5.79503 11.0845 5.75863 11.1078 5.72071 11.1285C5.80302 10.3759 5.94872 9.60815 6.19692 9.23585C6.22032 9.20172 6.2367 9.16328 6.24512 9.12277C6.25355 9.08226 6.25384 9.04048 6.24598 8.99985C6.23813 8.95923 6.22229 8.92056 6.19937 8.88611C6.17646 8.85166 6.14693 8.8221 6.1125 8.79914C6.07807 8.77619 6.03943 8.76031 5.99881 8.75241C5.95819 8.74451 5.91641 8.74476 5.87589 8.75314C5.83537 8.76152 5.79691 8.77786 5.76276 8.80122C5.7286 8.82458 5.69943 8.85448 5.67692 8.88921V8.88921C5.3936 9.31421 5.19454 10.0931 5.0847 11.2033C4.97979 11.1734 4.8813 11.1244 4.79419 11.0588C4.46458 10.8112 3.74552 10.625 3.44036 10.625C2.62333 10.625 1.88614 10.9581 1.36462 11.563C0.770205 12.2524 0.516299 13.2324 0.667979 14.2515L0.863291 15.5631C0.984621 16.3949 1.25614 17.1978 1.66462 17.9325C2.17481 18.8466 3.06013 19.3762 3.99665 19.3762C4.22711 19.376 4.45645 19.3442 4.67829 19.2818C4.6854 19.2798 4.69241 19.2776 4.69931 19.2751L5.22204 19.0881C5.28022 19.067 5.34394 19.067 5.40212 19.0881L5.92481 19.2751C5.93173 19.2776 5.93876 19.2798 5.94583 19.2818C6.16769 19.3442 6.39704 19.376 6.62751 19.3762C7.31243 19.3762 7.96985 19.0925 8.47333 18.5827C9.53268 19.1002 10.6955 19.371 11.8744 19.375C13.8197 19.375 15.6993 18.6385 17.1674 17.3011C18.5699 16.0232 19.3744 14.3872 19.3744 12.8125C19.3744 12.7296 19.3415 12.6501 19.2829 12.5915C19.2243 12.5329 19.1448 12.5 19.0619 12.5ZM10.8676 10.9336L12.191 9.64843L13.5171 10.9358L12.1943 12.2187L10.8676 10.9336ZM11.5863 12.5H9.79962C9.75403 12.3724 9.70014 12.2479 9.63829 12.1273L10.4189 11.3692L11.5863 12.5ZM13.9657 11.3713L15.1283 12.5H12.8018L13.9657 11.3713ZM12.6395 9.2128L13.9618 7.92866L15.289 9.21772L13.9659 10.5007L12.6395 9.2128ZM12.8582 5.98577C13.4324 6.06846 13.986 6.25777 14.4906 6.54393L13.9618 7.05745L12.8582 5.98577ZM13.5132 7.49307L12.1908 8.77733L10.8692 7.49425L12.1918 6.20983L13.5132 7.49307ZM10.4206 7.05858L9.88782 6.54132C10.3946 6.25474 10.9506 6.06581 11.5271 5.98436L10.4206 7.05858ZM10.4206 7.92968L11.7424 9.21288L10.4184 10.4986L9.09517 9.21694L10.4206 7.92968ZM9.96982 10.9342L9.28751 11.5969C9.2781 11.5856 9.26884 11.5741 9.25923 11.563C8.83812 11.0715 8.25293 10.7495 7.61235 10.6569L8.64657 9.65257L9.96982 10.9342ZM9.7606 15.5631L9.95591 14.2515C10.0127 13.8782 10.0131 13.4984 9.95724 13.125H17.4439C17.2637 14.1569 16.6535 15.1907 15.7331 16.0058C14.6452 16.9694 13.2748 17.5 11.8744 17.5C11.0228 17.4965 10.1827 17.3031 9.41524 16.934C9.57589 16.4897 9.6916 16.0304 9.76063 15.5631H9.7606ZM16.3454 12.5L16.8744 11.9876V12.5H16.3454ZM16.8744 11.1176L15.7367 12.2194L14.4147 10.936L15.7377 9.65315L16.8744 10.7571V11.1176ZM16.8047 9.81819L16.1865 9.21788L16.5367 8.87835C16.6588 9.18133 16.7487 9.49635 16.8047 9.81819V9.81819ZM16.2486 8.28694L15.7379 8.78214L14.4104 7.49307L15.0246 6.89667C15.5204 7.27479 15.9364 7.74734 16.2486 8.28706V8.28694ZM16.365 4.74725C16.0061 5.14288 15.5734 5.69929 15.2995 6.32249C15.0202 6.11975 14.7217 5.9447 14.4084 5.79979C14.4124 5.75112 14.4183 5.70245 14.4259 5.65378C14.9294 5.17186 15.5792 4.86823 16.365 4.74737V4.74725ZM15.1147 3.18475C14.6073 3.74417 13.9524 4.62487 13.8074 5.56526C13.4397 5.44721 13.0601 5.36992 12.6755 5.33479C12.6388 5.221 12.5919 5.09225 12.5324 4.95393C12.9161 4.21905 13.6635 3.40893 15.1147 3.18507V3.18475ZM12.1869 1.29714C12.9613 1.80163 13.0961 2.95858 13.1195 3.32448C12.7519 3.59438 12.4358 3.92829 12.1865 4.31022C12.0431 4.09101 11.8778 3.88694 11.6931 3.70116C11.5567 3.56434 11.41 3.43813 11.2544 3.32362C11.2779 2.95682 11.4131 1.80124 12.1869 1.29714ZM9.25958 3.18554C10.991 3.45429 11.712 4.55913 12.0061 5.31589C11.517 5.33205 11.0324 5.41608 10.5664 5.56557C10.5567 5.50214 10.5446 5.43903 10.5303 5.37624L10.5413 5.36604C10.5356 5.35987 10.5296 5.35393 10.524 5.34784C10.3209 4.49065 9.72755 3.70155 9.25958 3.18554ZM8.00864 4.74722C8.79536 4.86796 9.44466 5.17198 9.94802 5.65452C9.9556 5.70296 9.96157 5.75147 9.9654 5.79991C9.65211 5.94481 9.35367 6.11987 9.07431 6.32261C8.80044 5.69921 8.36759 5.14284 8.00864 4.74722ZM9.35333 6.89358L9.97208 7.49425L8.64606 8.78194L8.12888 8.281C8.44154 7.74231 8.85768 7.27079 9.35333 6.89358V6.89358ZM7.84005 8.87139L8.19743 9.21757L7.56724 9.82952C7.62359 9.50129 7.71505 9.18007 7.84005 8.87139V8.87139ZM8.41349 17.6279C8.01735 18.3379 7.33665 18.75 6.62185 18.75C6.45377 18.7499 6.28648 18.7272 6.12442 18.6826L5.61271 18.4996C5.41832 18.4302 5.20592 18.4302 5.01153 18.4996L4.49942 18.6828C3.61661 18.9246 2.69794 18.5017 2.21036 17.6281C1.83871 16.9592 1.59174 16.2284 1.48149 15.4712L1.28618 14.1596C1.16118 13.3205 1.36243 12.5229 1.83802 11.9713C2.03629 11.7414 2.28247 11.5577 2.55928 11.4331C2.83609 11.3085 3.13682 11.246 3.44036 11.25C3.63888 11.25 4.21927 11.4085 4.41899 11.5586C4.60057 11.6955 4.81098 11.7892 5.03423 11.8325C5.01884 12.0813 5.01024 12.2999 5.00544 12.4673C4.73536 12.4067 4.59919 12.2826 4.59181 12.2757L4.59524 12.2791C4.56627 12.2498 4.53179 12.2265 4.49379 12.2106C4.45579 12.1947 4.41502 12.1864 4.37383 12.1863C4.33263 12.1862 4.29182 12.1943 4.25375 12.21C4.21567 12.2258 4.18108 12.2489 4.15197 12.278C4.12286 12.3072 4.0998 12.3418 4.08412 12.3799C4.06844 12.418 4.06044 12.4588 4.06059 12.5C4.06074 12.5412 4.06904 12.5819 4.085 12.6199C4.10096 12.6579 4.12428 12.6923 4.1536 12.7213C4.19552 12.763 4.57927 13.125 5.31192 13.125C6.04521 13.125 6.42911 12.7623 6.4704 12.721C6.49942 12.6919 6.52244 12.6575 6.53814 12.6196C6.55385 12.5817 6.56193 12.541 6.56193 12.5C6.56193 12.4589 6.55385 12.4183 6.53814 12.3804C6.52244 12.3425 6.49942 12.308 6.4704 12.279C6.44138 12.25 6.40693 12.227 6.36902 12.2113C6.3311 12.1956 6.29046 12.1875 6.24942 12.1875C6.20839 12.1875 6.16775 12.1956 6.12983 12.2113C6.09192 12.227 6.05747 12.25 6.02845 12.279C6.02681 12.2807 5.89333 12.402 5.63001 12.4641C5.63544 12.2753 5.64532 12.0543 5.66099 11.8169C5.85788 11.7685 6.04289 11.6805 6.20481 11.5585C6.40454 11.4085 6.98493 11.2499 7.18345 11.2499C7.48698 11.2459 7.78771 11.3083 8.06453 11.4329C8.34134 11.5575 8.58754 11.7412 8.78583 11.971C9.26142 12.5226 9.46255 13.3202 9.33767 14.1594L9.14235 15.4709C9.03211 16.2281 8.78514 16.959 8.41349 17.6279V17.6279ZM16.7463 16.8391C15.3937 18.0714 13.6635 18.75 11.8744 18.75C10.8368 18.7464 9.81228 18.5177 8.87161 18.0796C8.90189 18.0317 8.9313 17.9828 8.95935 17.9325C9.03625 17.7948 9.10824 17.6545 9.17532 17.5117C10.019 17.9121 10.9406 18.1214 11.8744 18.125C13.4276 18.125 14.9452 17.5385 16.1475 16.4737C17.2042 15.5378 17.8956 14.3315 18.0767 13.125H18.7374C18.6381 14.4278 17.9248 15.7656 16.7463 16.8391Z" fill="#555555"/>
</svg>
